<?xml version="1.0" standalone="no"?>
<!DOCTYPE svg PUBLIC "-//W3C//DTD SVG 20010904//EN"
 "http://www.w3.org/TR/2001/REC-SVG-20010904/DTD/svg10.dtd">
<svg version="1.0" xmlns="http://www.w3.org/2000/svg"
 width="512.000000pt" height="512.000000pt" viewBox="0 0 512.000000 512.000000"
 preserveAspectRatio="xMidYMid meet">
<metadata>
Created by potrace 1.11, written by Peter Selinger 2001-2013
</metadata>
<g transform="translate(0.000000,512.000000) scale(0.100000,-0.100000)"
fill="#000000" stroke="none">
<path d="M2246 3828 l-196 -273 60 -60 c33 -33 60 -63 60 -65 0 -3 -251 -131
-559 -284 l-559 -280 -6 -115 c-38 -663 -140 -1041 -335 -1244 l-45 -47 104
-105 c58 -58 109 -105 115 -105 6 0 27 16 46 36 81 84 241 169 414 219 186 54
490 97 780 110 72 3 139 8 150 10 15 3 87 138 300 564 l280 561 60 -60 c33
-33 64 -60 67 -60 15 0 538 382 538 394 0 6 -12 26 -27 43 l-28 32 -235 -169
c-129 -93 -237 -170 -240 -170 -3 0 -185 180 -404 399 -245 245 -397 404 -394
413 3 7 76 111 163 232 86 120 158 223 161 230 2 6 -14 23 -35 39 l-39 27
-196 -272z m271 -740 l262 -263 -277 -550 -277 -550 -173 -12 c-522 -35 -833
-110 -1076 -260 -23 -14 106 122 298 315 l340 341 46 -6 c91 -11 160 47 168
141 4 56 -18 101 -69 139 -38 28 -115 27 -161 -1 -53 -33 -72 -77 -66 -149 l6
-60 -357 -357 c-196 -196 -359 -356 -363 -356 -5 0 7 20 26 44 169 222 259
579 302 1199 l6 98 547 274 c300 151 548 274 551 274 3 1 123 -117 267 -261z"/>
<path d="M1170 1070 l0 -50 1640 0 1640 0 0 50 0 50 -1640 0 -1640 0 0 -50z"/>
</g>
</svg>
